<svg width="898" height="344" viewBox="0 0 898 344" fill="none" xmlns="http://www.w3.org/2000/svg">
<path d="M69.5 48.0938C69.5 46.1562 69.0417 44.5208 68.125 43.1875C67.2292 41.8333 65.8021 40.6458 63.8438 39.625C61.9062 38.5833 58.9688 37.5208 55.0312 36.4375C51.0938 35.3542 48.1354 34.2604 46.1562 33.1562C44.1979 32.0521 42.7604 30.7708 41.8438 29.3125C40.9271 27.8542 40.4688 26.0833 40.4688 24C40.4688 20.6875 41.8646 18.0104 44.6562 15.9688C47.4479 13.9062 51.0833 12.875 55.5625 12.875C58.4792 12.875 61.0938 13.4479 63.4062 14.5938C65.7396 15.7188 67.5417 17.3125 68.8125 19.375C70.0833 21.4167 70.7188 23.7292 70.7188 26.3125H69.0312C69.0312 22.9167 67.7812 20.1146 65.2812 17.9062C62.7812 15.6771 59.5417 14.5625 55.5625 14.5625C51.5625 14.5625 48.3229 15.4583 45.8438 17.25C43.3854 19.0208 42.1562 21.25 42.1562 23.9375C42.1562 26.6667 43.2292 28.8646 45.375 30.5312C47.5208 32.1979 51.0625 33.6771 56 34.9688C60.9375 36.2396 64.5521 37.7188 66.8438 39.4062C69.7604 41.5521 71.2188 44.4271 71.2188 48.0312C71.2188 50.3229 70.5729 52.3542 69.2812 54.125C67.9896 55.875 66.1562 57.2292 63.7812 58.1875C61.4062 59.1458 58.7396 59.625 55.7812 59.625C52.4896 59.625 49.5312 59.0833 46.9062 58C44.2812 56.8958 42.3021 55.3333 40.9688 53.3125C39.6562 51.2917 39 48.9062 39 46.1562H40.6875C40.6875 49.8854 42.0833 52.7812 44.875 54.8438C47.6667 56.9062 51.3021 57.9375 55.7812 57.9375C59.7604 57.9375 63.0417 57.0312 65.625 55.2188C68.2083 53.3854 69.5 51.0104 69.5 48.0938ZM91.4062 59.625C88.6771 59.625 86.1667 58.8958 83.875 57.4375C81.6042 55.9583 79.8229 53.9375 78.5312 51.375C77.2396 48.8125 76.5938 45.9688 76.5938 42.8438V41.4375C76.5938 38.3125 77.2188 35.4479 78.4688 32.8438C79.7188 30.2396 81.4375 28.2083 83.625 26.75C85.8125 25.2917 88.1979 24.5625 90.7812 24.5625C94.5521 24.5625 97.6354 25.9062 100.031 28.5938C102.427 31.2812 103.625 34.8125 103.625 39.1875V40.9688H78.2812V42.8125C78.2812 45.5625 78.8542 48.1146 80 50.4688C81.1667 52.8021 82.7604 54.6354 84.7812 55.9688C86.8229 57.3021 89.0312 57.9688 91.4062 57.9688C93.6771 57.9688 95.6042 57.5938 97.1875 56.8438C98.7917 56.0729 100.208 54.8958 101.438 53.3125L102.625 54.1562C100.104 57.8021 96.3646 59.625 91.4062 59.625ZM90.7812 26.25C87.4896 26.25 84.6979 27.4792 82.4062 29.9375C80.1146 32.375 78.7708 35.4896 78.375 39.2812H101.938V38.875C101.938 36.5833 101.448 34.4583 100.469 32.5C99.5104 30.5208 98.1771 28.9896 96.4688 27.9062C94.7812 26.8021 92.8854 26.25 90.7812 26.25ZM122.969 57.9375C126.031 57.9375 128.552 57.125 130.531 55.5C132.531 53.875 133.625 51.625 133.812 48.75H135.5C135.333 52.0208 134.073 54.6562 131.719 56.6562C129.365 58.6354 126.448 59.625 122.969 59.625C118.74 59.625 115.375 58.0938 112.875 55.0312C110.396 51.9688 109.156 47.8125 109.156 42.5625V41.4375C109.156 36.3125 110.396 32.2188 112.875 29.1562C115.375 26.0938 118.719 24.5625 122.906 24.5625C126.49 24.5625 129.448 25.6354 131.781 27.7812C134.115 29.9271 135.354 32.7812 135.5 36.3438H133.812C133.667 33.3021 132.594 30.8646 130.594 29.0312C128.615 27.1771 126.052 26.25 122.906 26.25C119.135 26.25 116.177 27.6146 114.031 30.3438C111.906 33.0521 110.844 36.8229 110.844 41.6562V42.75C110.844 47.4792 111.917 51.1979 114.062 53.9062C116.229 56.5938 119.198 57.9375 122.969 57.9375ZM166.656 59V53.5312C165.656 55.4062 164.198 56.8958 162.281 58C160.365 59.0833 157.938 59.625 155 59.625C151.312 59.625 148.542 58.5521 146.688 56.4062C144.854 54.2396 143.917 51.0938 143.875 46.9688V25.1875H145.562V47.0312C145.604 50.6146 146.417 53.3333 148 55.1875C149.583 57.0208 151.896 57.9375 154.938 57.9375C158.167 57.9375 160.792 57.1771 162.812 55.6562C164.833 54.1354 166.115 51.9062 166.656 48.9688V25.1875H168.375V59H166.656ZM193.969 26.4062L191.781 26.2188C188.906 26.2188 186.5 27.1562 184.562 29.0312C182.625 30.8854 181.354 33.4896 180.75 36.8438V59H179.062V25.1875H180.75V32.2188C181.667 29.8646 183.042 28 184.875 26.625C186.708 25.25 189.01 24.5625 191.781 24.5625C192.76 24.5625 193.552 24.6771 194.156 24.9062L193.969 26.4062ZM202.594 59H200.906V25.1875H202.594V59ZM200.031 14.625C200.031 14.1458 200.198 13.7396 200.531 13.4062C200.865 13.0521 201.271 12.875 201.75 12.875C202.229 12.875 202.635 13.0521 202.969 13.4062C203.323 13.7396 203.5 14.1458 203.5 14.625C203.5 15.1042 203.323 15.5104 202.969 15.8438C202.635 16.1771 202.229 16.3438 201.75 16.3438C201.271 16.3438 200.865 16.1771 200.531 15.8438C200.198 15.5104 200.031 15.1042 200.031 14.625ZM217.469 16.0625V25.1875H225.156V26.9062H217.469V50.9062C217.469 53.3021 217.854 55.0729 218.625 56.2188C219.417 57.3646 220.729 57.9375 222.562 57.9375C223.479 57.9375 224.594 57.8438 225.906 57.6562L226.188 59.25C225.5 59.5 224.323 59.625 222.656 59.625C220.198 59.625 218.438 58.9479 217.375 57.5938C216.312 56.2188 215.771 54.0625 215.75 51.125V26.9062H209.5V25.1875H215.75V16.0625H217.469ZM244.281 56.375L244.5 55.75L256.188 25.1875H258.062L242.938 64.875L242.188 66.75C240.562 70.6875 237.875 72.6562 234.125 72.6562C232.917 72.6562 232.083 72.5417 231.625 72.3125L231.594 70.7188C232.26 70.9062 233.021 71 233.875 71C235.646 71 237.115 70.4792 238.281 69.4375C239.448 68.4167 240.458 66.7396 241.312 64.4062L243.375 58.8125L229.906 25.1875H231.75L244.281 56.375Z" fill="black"/>
<path d="M439.531 184.188H422.969V228H421.281V184.188H404.719V182.5H439.531V184.188ZM459.156 195.406L456.969 195.219C454.094 195.219 451.688 196.156 449.75 198.031C447.812 199.885 446.542 202.49 445.938 205.844V228H444.25V194.188H445.938V201.219C446.854 198.865 448.229 197 450.062 195.625C451.896 194.25 454.198 193.562 456.969 193.562C457.948 193.562 458.74 193.677 459.344 193.906L459.156 195.406ZM486.281 228C485.865 226.562 485.656 224.5 485.656 221.812C484.323 223.979 482.5 225.656 480.188 226.844C477.875 228.031 475.26 228.625 472.344 228.625C469.219 228.625 466.698 227.781 464.781 226.094C462.885 224.385 461.938 222.167 461.938 219.438C461.938 216.333 463.333 213.854 466.125 212C468.938 210.125 472.667 209.167 477.312 209.125H485.656V204.188C485.656 201.354 484.76 199.156 482.969 197.594C481.198 196.031 478.656 195.25 475.344 195.25C472.26 195.25 469.688 196.042 467.625 197.625C465.562 199.208 464.531 201.167 464.531 203.5L462.844 203.438C462.844 200.688 464.052 198.354 466.469 196.438C468.885 194.521 471.844 193.562 475.344 193.562C478.99 193.562 481.885 194.479 484.031 196.312C486.177 198.125 487.281 200.688 487.344 204V220.156C487.344 223.865 487.635 226.385 488.219 227.719V228H486.281ZM472.344 226.969C475.51 226.969 478.229 226.26 480.5 224.844C482.792 223.427 484.51 221.438 485.656 218.875V210.844H477.844C473.01 210.844 469.312 211.802 466.75 213.719C464.667 215.281 463.625 217.229 463.625 219.562C463.625 221.625 464.448 223.375 466.094 224.812C467.74 226.25 469.823 226.969 472.344 226.969ZM500.344 228H498.656V194.188H500.344V228ZM497.781 183.625C497.781 183.146 497.948 182.74 498.281 182.406C498.615 182.052 499.021 181.875 499.5 181.875C499.979 181.875 500.385 182.052 500.719 182.406C501.073 182.74 501.25 183.146 501.25 183.625C501.25 184.104 501.073 184.51 500.719 184.844C500.385 185.177 499.979 185.344 499.5 185.344C499.021 185.344 498.615 185.177 498.281 184.844C497.948 184.51 497.781 184.104 497.781 183.625ZM513.125 202.062C514.229 199.438 515.854 197.365 518 195.844C520.146 194.323 522.521 193.562 525.125 193.562C528.75 193.562 531.438 194.594 533.188 196.656C534.958 198.698 535.854 201.792 535.875 205.938V228H534.188V205.875C534.167 202.25 533.427 199.573 531.969 197.844C530.51 196.094 528.198 195.219 525.031 195.219C522.115 195.219 519.583 196.26 517.438 198.344C515.312 200.406 513.875 203.073 513.125 206.344V228H511.438V194.188H513.125V202.062ZM548.594 228H546.906V194.188H548.594V228ZM546.031 183.625C546.031 183.146 546.198 182.74 546.531 182.406C546.865 182.052 547.271 181.875 547.75 181.875C548.229 181.875 548.635 182.052 548.969 182.406C549.323 182.74 549.5 183.146 549.5 183.625C549.5 184.104 549.323 184.51 548.969 184.844C548.635 185.177 548.229 185.344 547.75 185.344C547.271 185.344 546.865 185.177 546.531 184.844C546.198 184.51 546.031 184.104 546.031 183.625ZM561.375 202.062C562.479 199.438 564.104 197.365 566.25 195.844C568.396 194.323 570.771 193.562 573.375 193.562C577 193.562 579.688 194.594 581.438 196.656C583.208 198.698 584.104 201.792 584.125 205.938V228H582.438V205.875C582.417 202.25 581.677 199.573 580.219 197.844C578.76 196.094 576.448 195.219 573.281 195.219C570.365 195.219 567.833 196.26 565.688 198.344C563.562 200.406 562.125 203.073 561.375 206.344V228H559.688V194.188H561.375V202.062ZM593.156 210.75C593.156 205.354 594.292 201.146 596.562 198.125C598.833 195.083 601.948 193.562 605.906 193.562C608.427 193.562 610.667 194.146 612.625 195.312C614.583 196.458 616.156 198.146 617.344 200.375V194.188H619.062V227.406C619.062 231.865 617.917 235.344 615.625 237.844C613.333 240.365 610.219 241.625 606.281 241.625C604.01 241.625 601.927 241.135 600.031 240.156C598.156 239.177 596.552 237.771 595.219 235.938L596.406 234.812C597.719 236.479 599.156 237.75 600.719 238.625C602.281 239.521 604.115 239.969 606.219 239.969C609.698 239.969 612.406 238.906 614.344 236.781C616.281 234.677 617.281 231.698 617.344 227.844V222.656C616.177 224.573 614.594 226.052 612.594 227.094C610.615 228.115 608.365 228.625 605.844 228.625C601.927 228.625 598.833 227.073 596.562 223.969C594.292 220.865 593.156 216.604 593.156 211.188V210.75ZM594.875 211.406C594.875 216.24 595.833 220.042 597.75 222.812C599.667 225.562 602.354 226.938 605.812 226.938C608.667 226.938 611.094 226.281 613.094 224.969C615.094 223.635 616.51 221.771 617.344 219.375V204.031C615.51 198.177 611.688 195.25 605.875 195.25C602.396 195.25 599.688 196.615 597.75 199.344C595.833 202.073 594.875 206.094 594.875 211.406Z" fill="black"/>
<path d="M250.75 119.438H227.938V140.312H253.938V142H226.25V96.5H253.938V98.1875H227.938V117.75H250.75V119.438ZM259.625 124.75C259.625 119.354 260.76 115.146 263.031 112.125C265.302 109.083 268.417 107.562 272.375 107.562C274.917 107.562 277.156 108.135 279.094 109.281C281.052 110.427 282.635 112.135 283.844 114.406V94H285.531V142H283.844V136.594C282.698 138.51 281.125 140 279.125 141.062C277.125 142.104 274.854 142.625 272.312 142.625C268.396 142.625 265.302 141.073 263.031 137.969C260.76 134.865 259.625 130.604 259.625 125.188V124.75ZM261.375 125.406C261.375 130.198 262.323 133.99 264.219 136.781C266.115 139.552 268.802 140.938 272.281 140.938C275.073 140.938 277.458 140.323 279.438 139.094C281.417 137.844 282.885 136.021 283.844 133.625V117.781C281.906 112.094 278.073 109.25 272.344 109.25C268.885 109.25 266.188 110.615 264.25 113.344C262.333 116.073 261.375 120.094 261.375 125.406ZM318.906 142V136.531C317.906 138.406 316.448 139.896 314.531 141C312.615 142.083 310.188 142.625 307.25 142.625C303.562 142.625 300.792 141.552 298.938 139.406C297.104 137.24 296.167 134.094 296.125 129.969V108.188H297.812V130.031C297.854 133.615 298.667 136.333 300.25 138.188C301.833 140.021 304.146 140.938 307.188 140.938C310.417 140.938 313.042 140.177 315.062 138.656C317.083 137.135 318.365 134.906 318.906 131.969V108.188H320.625V142H318.906ZM342.781 140.938C345.844 140.938 348.365 140.125 350.344 138.5C352.344 136.875 353.438 134.625 353.625 131.75H355.312C355.146 135.021 353.885 137.656 351.531 139.656C349.177 141.635 346.26 142.625 342.781 142.625C338.552 142.625 335.188 141.094 332.688 138.031C330.208 134.969 328.969 130.812 328.969 125.562V124.438C328.969 119.312 330.208 115.219 332.688 112.156C335.188 109.094 338.531 107.562 342.719 107.562C346.302 107.562 349.26 108.635 351.594 110.781C353.927 112.927 355.167 115.781 355.312 119.344H353.625C353.479 116.302 352.406 113.865 350.406 112.031C348.427 110.177 345.865 109.25 342.719 109.25C338.948 109.25 335.99 110.615 333.844 113.344C331.719 116.052 330.656 119.823 330.656 124.656V125.75C330.656 130.479 331.729 134.198 333.875 136.906C336.042 139.594 339.01 140.938 342.781 140.938ZM385.656 142C385.24 140.562 385.031 138.5 385.031 135.812C383.698 137.979 381.875 139.656 379.562 140.844C377.25 142.031 374.635 142.625 371.719 142.625C368.594 142.625 366.073 141.781 364.156 140.094C362.26 138.385 361.312 136.167 361.312 133.438C361.312 130.333 362.708 127.854 365.5 126C368.312 124.125 372.042 123.167 376.688 123.125H385.031V118.188C385.031 115.354 384.135 113.156 382.344 111.594C380.573 110.031 378.031 109.25 374.719 109.25C371.635 109.25 369.062 110.042 367 111.625C364.938 113.208 363.906 115.167 363.906 117.5L362.219 117.438C362.219 114.688 363.427 112.354 365.844 110.438C368.26 108.521 371.219 107.562 374.719 107.562C378.365 107.562 381.26 108.479 383.406 110.312C385.552 112.125 386.656 114.688 386.719 118V134.156C386.719 137.865 387.01 140.385 387.594 141.719V142H385.656ZM371.719 140.969C374.885 140.969 377.604 140.26 379.875 138.844C382.167 137.427 383.885 135.438 385.031 132.875V124.844H377.219C372.385 124.844 368.688 125.802 366.125 127.719C364.042 129.281 363 131.229 363 133.562C363 135.625 363.823 137.375 365.469 138.812C367.115 140.25 369.198 140.969 371.719 140.969ZM401.406 99.0625V108.188H409.094V109.906H401.406V133.906C401.406 136.302 401.792 138.073 402.562 139.219C403.354 140.365 404.667 140.938 406.5 140.938C407.417 140.938 408.531 140.844 409.844 140.656L410.125 142.25C409.438 142.5 408.26 142.625 406.594 142.625C404.135 142.625 402.375 141.948 401.312 140.594C400.25 139.219 399.708 137.062 399.688 134.125V109.906H393.438V108.188H399.688V99.0625H401.406ZM419.969 142H418.281V108.188H419.969V142ZM417.406 97.625C417.406 97.1458 417.573 96.7396 417.906 96.4062C418.24 96.0521 418.646 95.875 419.125 95.875C419.604 95.875 420.01 96.0521 420.344 96.4062C420.698 96.7396 420.875 97.1458 420.875 97.625C420.875 98.1042 420.698 98.5104 420.344 98.8438C420.01 99.1771 419.604 99.3438 419.125 99.3438C418.646 99.3438 418.24 99.1771 417.906 98.8438C417.573 98.5104 417.406 98.1042 417.406 97.625ZM428.5 124.438C428.5 121.208 429.115 118.312 430.344 115.75C431.594 113.167 433.344 111.156 435.594 109.719C437.865 108.281 440.427 107.562 443.281 107.562C446.115 107.562 448.656 108.26 450.906 109.656C453.156 111.052 454.906 113.031 456.156 115.594C457.427 118.156 458.073 121.042 458.094 124.25V125.75C458.094 129 457.479 131.906 456.25 134.469C455.021 137.031 453.271 139.031 451 140.469C448.75 141.906 446.198 142.625 443.344 142.625C440.49 142.625 437.927 141.917 435.656 140.5C433.406 139.083 431.656 137.104 430.406 134.562C429.156 132 428.521 129.125 428.5 125.938V124.438ZM430.188 125.75C430.188 128.562 430.74 131.146 431.844 133.5C432.969 135.833 434.521 137.656 436.5 138.969C438.5 140.281 440.781 140.938 443.344 140.938C447.198 140.938 450.333 139.49 452.75 136.594C455.188 133.698 456.406 129.969 456.406 125.406V124.438C456.406 121.667 455.844 119.104 454.719 116.75C453.594 114.396 452.031 112.562 450.031 111.25C448.052 109.917 445.802 109.25 443.281 109.25C439.427 109.25 436.281 110.719 433.844 113.656C431.406 116.594 430.188 120.292 430.188 124.75V125.75ZM468 116.062C469.104 113.438 470.729 111.365 472.875 109.844C475.021 108.323 477.396 107.562 480 107.562C483.625 107.562 486.312 108.594 488.062 110.656C489.833 112.698 490.729 115.792 490.75 119.938V142H489.062V119.875C489.042 116.25 488.302 113.573 486.844 111.844C485.385 110.094 483.073 109.219 479.906 109.219C476.99 109.219 474.458 110.26 472.312 112.344C470.188 114.406 468.75 117.073 468 120.344V142H466.312V108.188H468V116.062Z" fill="black"/>
<path d="M624.219 297.406H601.938L596.875 311H595.031L612.062 265.5H614.125L631.156 311H629.312L624.219 297.406ZM602.562 295.719H623.594L613.094 267.531L602.562 295.719ZM642.625 301.219L644.469 308.5L654.375 277.188H656.094L665.938 308.5L667.844 301.219L674.719 277.188H676.688L666.844 311H665.156L656.812 285.594L655.219 279.531L653.5 285.594L645.281 311H643.594L633.781 277.188H635.719L642.625 301.219ZM706.844 311C706.427 309.562 706.219 307.5 706.219 304.812C704.885 306.979 703.062 308.656 700.75 309.844C698.438 311.031 695.823 311.625 692.906 311.625C689.781 311.625 687.26 310.781 685.344 309.094C683.448 307.385 682.5 305.167 682.5 302.438C682.5 299.333 683.896 296.854 686.688 295C689.5 293.125 693.229 292.167 697.875 292.125H706.219V287.188C706.219 284.354 705.323 282.156 703.531 280.594C701.76 279.031 699.219 278.25 695.906 278.25C692.823 278.25 690.25 279.042 688.188 280.625C686.125 282.208 685.094 284.167 685.094 286.5L683.406 286.438C683.406 283.688 684.615 281.354 687.031 279.438C689.448 277.521 692.406 276.562 695.906 276.562C699.552 276.562 702.448 277.479 704.594 279.312C706.74 281.125 707.844 283.688 707.906 287V303.156C707.906 306.865 708.198 309.385 708.781 310.719V311H706.844ZM692.906 309.969C696.073 309.969 698.792 309.26 701.062 307.844C703.354 306.427 705.073 304.438 706.219 301.875V293.844H698.406C693.573 293.844 689.875 294.802 687.312 296.719C685.229 298.281 684.188 300.229 684.188 302.562C684.188 304.625 685.01 306.375 686.656 307.812C688.302 309.25 690.385 309.969 692.906 309.969ZM733.719 278.406L731.531 278.219C728.656 278.219 726.25 279.156 724.312 281.031C722.375 282.885 721.104 285.49 720.5 288.844V311H718.812V277.188H720.5V284.219C721.417 281.865 722.792 280 724.625 278.625C726.458 277.25 728.76 276.562 731.531 276.562C732.51 276.562 733.302 276.677 733.906 276.906L733.719 278.406ZM751.781 311.625C749.052 311.625 746.542 310.896 744.25 309.438C741.979 307.958 740.198 305.938 738.906 303.375C737.615 300.812 736.969 297.969 736.969 294.844V293.438C736.969 290.312 737.594 287.448 738.844 284.844C740.094 282.24 741.812 280.208 744 278.75C746.188 277.292 748.573 276.562 751.156 276.562C754.927 276.562 758.01 277.906 760.406 280.594C762.802 283.281 764 286.812 764 291.188V292.969H738.656V294.812C738.656 297.562 739.229 300.115 740.375 302.469C741.542 304.802 743.135 306.635 745.156 307.969C747.198 309.302 749.406 309.969 751.781 309.969C754.052 309.969 755.979 309.594 757.562 308.844C759.167 308.073 760.583 306.896 761.812 305.312L763 306.156C760.479 309.802 756.74 311.625 751.781 311.625ZM751.156 278.25C747.865 278.25 745.073 279.479 742.781 281.938C740.49 284.375 739.146 287.49 738.75 291.281H762.312V290.875C762.312 288.583 761.823 286.458 760.844 284.5C759.885 282.521 758.552 280.99 756.844 279.906C755.156 278.802 753.26 278.25 751.156 278.25ZM773.562 285.062C774.667 282.438 776.292 280.365 778.438 278.844C780.583 277.323 782.958 276.562 785.562 276.562C789.188 276.562 791.875 277.594 793.625 279.656C795.396 281.698 796.292 284.792 796.312 288.938V311H794.625V288.875C794.604 285.25 793.865 282.573 792.406 280.844C790.948 279.094 788.635 278.219 785.469 278.219C782.552 278.219 780.021 279.26 777.875 281.344C775.75 283.406 774.312 286.073 773.562 289.344V311H771.875V277.188H773.562V285.062ZM819.094 311.625C816.365 311.625 813.854 310.896 811.562 309.438C809.292 307.958 807.51 305.938 806.219 303.375C804.927 300.812 804.281 297.969 804.281 294.844V293.438C804.281 290.312 804.906 287.448 806.156 284.844C807.406 282.24 809.125 280.208 811.312 278.75C813.5 277.292 815.885 276.562 818.469 276.562C822.24 276.562 825.323 277.906 827.719 280.594C830.115 283.281 831.312 286.812 831.312 291.188V292.969H805.969V294.812C805.969 297.562 806.542 300.115 807.688 302.469C808.854 304.802 810.448 306.635 812.469 307.969C814.51 309.302 816.719 309.969 819.094 309.969C821.365 309.969 823.292 309.594 824.875 308.844C826.479 308.073 827.896 306.896 829.125 305.312L830.312 306.156C827.792 309.802 824.052 311.625 819.094 311.625ZM818.469 278.25C815.177 278.25 812.385 279.479 810.094 281.938C807.802 284.375 806.458 287.49 806.062 291.281H829.625V290.875C829.625 288.583 829.135 286.458 828.156 284.5C827.198 282.521 825.865 280.99 824.156 279.906C822.469 278.802 820.573 278.25 818.469 278.25ZM860.031 302.719C860.031 298.615 856.531 295.823 849.531 294.344C845.323 293.448 842.396 292.302 840.75 290.906C839.104 289.49 838.281 287.552 838.281 285.094C838.281 282.615 839.323 280.573 841.406 278.969C843.51 277.365 846.24 276.562 849.594 276.562C853.24 276.562 856.167 277.438 858.375 279.188C860.583 280.917 861.688 283.26 861.688 286.219H859.969C859.969 283.948 859.01 282.052 857.094 280.531C855.177 279.01 852.677 278.25 849.594 278.25C846.635 278.25 844.292 278.896 842.562 280.188C840.833 281.479 839.969 283.094 839.969 285.031C839.969 286.552 840.292 287.75 840.938 288.625C841.583 289.479 842.635 290.26 844.094 290.969C845.552 291.656 847.677 292.323 850.469 292.969C853.26 293.615 855.469 294.375 857.094 295.25C858.719 296.125 859.896 297.167 860.625 298.375C861.354 299.562 861.719 301.021 861.719 302.75C861.719 305.417 860.625 307.562 858.438 309.188C856.25 310.812 853.385 311.625 849.844 311.625C846.052 311.625 842.99 310.771 840.656 309.062C838.344 307.333 837.188 305.115 837.188 302.406H838.875C839.042 304.781 840.083 306.635 842 307.969C843.938 309.281 846.552 309.938 849.844 309.938C852.865 309.938 855.312 309.24 857.188 307.844C859.083 306.427 860.031 304.719 860.031 302.719ZM891.906 302.719C891.906 298.615 888.406 295.823 881.406 294.344C877.198 293.448 874.271 292.302 872.625 290.906C870.979 289.49 870.156 287.552 870.156 285.094C870.156 282.615 871.198 280.573 873.281 278.969C875.385 277.365 878.115 276.562 881.469 276.562C885.115 276.562 888.042 277.438 890.25 279.188C892.458 280.917 893.562 283.26 893.562 286.219H891.844C891.844 283.948 890.885 282.052 888.969 280.531C887.052 279.01 884.552 278.25 881.469 278.25C878.51 278.25 876.167 278.896 874.438 280.188C872.708 281.479 871.844 283.094 871.844 285.031C871.844 286.552 872.167 287.75 872.812 288.625C873.458 289.479 874.51 290.26 875.969 290.969C877.427 291.656 879.552 292.323 882.344 292.969C885.135 293.615 887.344 294.375 888.969 295.25C890.594 296.125 891.771 297.167 892.5 298.375C893.229 299.562 893.594 301.021 893.594 302.75C893.594 305.417 892.5 307.562 890.312 309.188C888.125 310.812 885.26 311.625 881.719 311.625C877.927 311.625 874.865 310.771 872.531 309.062C870.219 307.333 869.062 305.115 869.062 302.406H870.75C870.917 304.781 871.958 306.635 873.875 307.969C875.812 309.281 878.427 309.938 881.719 309.938C884.74 309.938 887.188 309.24 889.062 307.844C890.958 306.427 891.906 304.719 891.906 302.719Z" fill="black"/>
<line x1="199.991" y1="82" x2="199.991" y2="172" stroke="#8D8D8D" stroke-width="4"/>
<line x1="380.991" y1="168" x2="380.991" y2="258" stroke="#8D8D8D" stroke-width="4"/>
<line x1="561.991" y1="254" x2="561.991" y2="344" stroke="#8D8D8D" stroke-width="4"/>
<line x1="197.991" y1="170" x2="382.991" y2="170" stroke="#8D8D8D" stroke-width="4"/>
<line x1="378.991" y1="256" x2="563.991" y2="256" stroke="#8D8D8D" stroke-width="4"/>
<line x1="559.991" y1="342" x2="889.991" y2="342" stroke="#8D8D8D" stroke-width="4"/>
<path d="M0.585785 81.8348C-0.195267 82.6159 -0.195267 83.8822 0.585785 84.6632L13.3137 97.3912C14.0948 98.1722 15.3611 98.1722 16.1421 97.3912C16.9232 96.6101 16.9232 95.3438 16.1421 94.5627L4.82843 83.249L16.1421 71.9353C16.9232 71.1543 16.9232 69.8879 16.1421 69.1069C15.3611 68.3258 14.0948 68.3258 13.3137 69.1069L0.585785 81.8348ZM202 81.249L2 81.249V85.249L202 85.249V81.249Z" fill="#8D8D8D"/>
</svg>
